<svg xmlns="http://www.w3.org/2000/svg" viewBox="0 0 43 43" width="43" height="43">
	<defs>
		<clipPath clipPathUnits="userSpaceOnUse" id="cp1">
			<path d="M-1599 -39L321 -39L321 7302L-1599 7302Z" />
		</clipPath>
	</defs>
	<style>
		tspan { white-space:pre }
		.shp0 { fill: #ffb79b } 
		.shp1 { fill: #000000 } 
	</style>
	<g id="Web 1920 – 1" clip-path="url(#cp1)">
		<g id="Group 6">
			<path id="Rectangle 6" class="shp0" d="M0 0L43 0L43 43L0 43L0 0Z" />
			<path id="Icon awesome-shopping-basket" fill-rule="evenodd" class="shp1" d="M40.2 18.88L40.2 19.92C40.2 20.77 39.51 21.47 38.65 21.47L38.14 21.47L36.45 33.27C36.23 34.8 34.92 35.94 33.38 35.94L9.82 35.94C8.28 35.94 6.97 34.8 6.75 33.27L5.07 21.47L4.55 21.47C3.69 21.47 3 20.77 3 19.92L3 18.88C3 18.03 3.69 17.33 4.55 17.33L8.9 17.33L15.8 7.85C16.47 6.93 17.76 6.72 18.68 7.4C19.61 8.07 19.81 9.36 19.14 10.28L14.01 17.33L29.19 17.33L24.06 10.28C23.39 9.36 23.6 8.07 24.52 7.4C25.44 6.72 26.74 6.93 27.41 7.85L34.3 17.33L38.65 17.33C39.51 17.33 40.2 18.03 40.2 18.88ZM23.15 30.25L23.15 23.02C23.15 22.16 22.46 21.47 21.6 21.47C20.75 21.47 20.05 22.16 20.05 23.02L20.05 30.25C20.05 31.11 20.75 31.8 21.6 31.8C22.46 31.8 23.15 31.11 23.15 30.25ZM30.39 30.25L30.39 23.02C30.39 22.16 29.69 21.47 28.84 21.47C27.98 21.47 27.29 22.16 27.29 23.02L27.29 30.25C27.29 31.11 27.98 31.8 28.84 31.8C29.69 31.8 30.39 31.11 30.39 30.25ZM15.92 30.25L15.92 23.02C15.92 22.16 15.22 21.47 14.37 21.47C13.51 21.47 12.82 22.16 12.82 23.02L12.82 30.25C12.82 31.11 13.51 31.8 14.37 31.8C15.22 31.8 15.92 31.11 15.92 30.25Z" />
		</g>
	</g>
</svg>