<svg xmlns="http://www.w3.org/2000/svg" viewBox="0 0 21 21" width="21" height="21">
	<defs>
		<clipPath clipPathUnits="userSpaceOnUse" id="cp1">
			<path d="M-1267 -1169L653 -1169L653 6172L-1267 6172Z" />
		</clipPath>
	</defs>
	<style>
		tspan { white-space:pre }
		.shp0 { fill: #000000 } 
	</style>
	<g id="Web 1920 – 1" clip-path="url(#cp1)">
		<g id="Group 11">
			<path id="Icon ionic-ios-search" fill-rule="evenodd" class="shp0" d="M19 19.33C18.86 19.47 18.66 19.55 18.47 19.55C18.27 19.55 18.06 19.47 17.91 19.31L12.91 14.26C11.67 15.27 10.09 15.87 8.37 15.87C4.38 15.87 1.16 12.65 1.16 8.67C1.16 4.69 4.38 1.45 8.37 1.45C12.35 1.45 15.58 4.68 15.58 8.66C15.58 10.36 14.99 11.92 14 13.16L19.03 18.24C19.32 18.55 19.31 19.04 19 19.33ZM12.37 12.66C13.44 11.6 14.03 10.18 14.03 8.67C14.03 7.16 13.44 5.74 12.37 4.67C11.3 3.6 9.88 3.01 8.37 3.01C6.86 3.01 5.43 3.6 4.36 4.67C3.29 5.73 2.71 7.15 2.71 8.67C2.71 10.17 3.29 11.59 4.36 12.66C5.43 13.73 6.86 14.32 8.37 14.32C9.88 14.32 11.3 13.73 12.37 12.66Z" />
		</g>
	</g>
</svg>